<svg width="20" height="20" xmlns="http://www.w3.org/2000/svg">

 <g>
  <title>background</title>
  <rect fill="none" id="canvas_background" height="402" width="582" y="-1" x="-1"/>
 </g>
 <g>
  <title>Layer 1</title>
  <path fill="#ffffff" id="svg_1" d="m10.319754,7.785c-0.199,-0.196 -0.52,-0.196 -0.717,0l-2.864,2.807c-0.199,0.195 -0.198,0.514 0,0.71c0.197,0.196 0.518,0.196 0.717,0l2.505,-2.302l2.506,2.302c0.198,0.196 0.518,0.196 0.718,0c0.197,-0.196 0.197,-0.515 0,-0.71l-2.865,-2.807zm-0.359,-7.385c-5.302,0 -9.6,4.298 -9.6,9.6c0,5.303 4.298,9.6 9.6,9.6s9.6,-4.297 9.6,-9.6c0,-5.302 -4.298,-9.6 -9.6,-9.6zm0,17.954c-4.615,0 -8.354,-3.74 -8.354,-8.354c0,-4.614 3.739,-8.354 8.354,-8.354c4.613,0 8.354,3.74 8.354,8.354c0,4.614 -3.741,8.354 -8.354,8.354z"/>
 </g>
</svg>