<svg width="24" height="24" xmlns="http://www.w3.org/2000/svg">

 <g>
  <title>background</title>
  <rect fill="none" id="canvas_background" height="402" width="582" y="-1" x="-1"/>
 </g>
 <g>
  <title>Layer 1</title>
  <path fill="#ffffff" id="svg_1" d="m12,3c-4.963,0 -9,4.038 -9,9s4.037,9 9,9s9,-4.038 9,-9s-4.037,-9 -9,-9zm0,16c-3.859,0 -7,-3.14 -7,-7s3.141,-7 7,-7s7,3.14 7,7s-3.141,7 -7,7z"/>
  <path fill="#ffffff" id="svg_2" d="m12.659907,12l2.646,-2.646c0.194,-0.194 0.194,-0.512 0,-0.707c-0.195,-0.194 -0.513,-0.194 -0.707,0l-2.646,2.646l-2.646,-2.647c-0.195,-0.194 -0.513,-0.194 -0.707,0c-0.195,0.195 -0.195,0.513 0,0.707l2.646,2.647l-2.646,2.646c-0.195,0.195 -0.195,0.513 0,0.707c0.097,0.098 0.225,0.147 0.353,0.147s0.256,-0.049 0.354,-0.146l2.646,-2.647l2.646,2.646c0.098,0.098 0.226,0.147 0.354,0.147s0.256,-0.049 0.354,-0.146c0.194,-0.194 0.194,-0.512 0,-0.707l-2.647,-2.647z"/>
 </g>
</svg>